<?xml version="1.0" encoding="utf-8"?>
<!-- Generator: Adobe Illustrator 23.0.5, SVG Export Plug-In . SVG Version: 6.00 Build 0)  -->
<svg version="1.1" id="Calque_1" xmlns="http://www.w3.org/2000/svg" xmlns:xlink="http://www.w3.org/1999/xlink" x="0px" y="0px"
	 viewBox="0 0 256 256" style="enable-background:new 0 0 256 256;" xml:space="preserve">
<style type="text/css">
	.st0{fill:#AA229D;}
	.st1{fill:#FFFFFF;}
</style>
<rect class="st0" width="256" height="256"/>
<path class="st1" d="M29,51.9L51.9,29H94l23,22.9V117H95V95H51v22H29V51.9z M61.1,51L51,61.1V73h44V61.1L84.9,51H61.1z"/>
<path class="st1" d="M161,95h66v22h-88V29h22V95z"/>
<path class="st1" d="M51,205h66v22H29v-88h88v22H51v11h55v22H51V205z"/>
<path class="st1" d="M204.1,139l22.9,22.9V204l-22.9,23H139v-88H204.1z M205,171.1L194.9,161H161v44h33.9l10.1-10.1V171.1z"/>
</svg>
