<?xml version="1.0" encoding="utf-8"?>
<!-- Generator: Adobe Illustrator 23.0.5, SVG Export Plug-In . SVG Version: 6.00 Build 0)  -->
<svg version="1.1" id="Calque_1" xmlns="http://www.w3.org/2000/svg" xmlns:xlink="http://www.w3.org/1999/xlink" x="0px" y="0px"
	 viewBox="0 0 937 256" style="enable-background:new 0 0 937 256;" xml:space="preserve">
<style type="text/css">
	.st0{fill:#AA229D;}
	.st1{fill:#FFFFFF;}
</style>
<rect class="st0" width="937" height="256"/>
<path class="st1" d="M29,80.6L80.6,29h94.8L227,80.6V227h-49.5v-49.5h-99V227H29V80.6z M101.1,78.5l-22.6,22.6V128h99v-26.9
	l-22.6-22.6H101.1z"/>
<path class="st1" d="M305.5,177.5H454V227H256V29h49.5V177.5z"/>
<path class="st1" d="M532.5,177.5H681V227H483V29h198v49.5H532.5v24.8h123.8v49.5H532.5V177.5z"/>
<path class="st1" d="M856.4,29L908,80.6v94.8L856.4,227H710V29H856.4z M858.5,101.1l-22.6-22.6h-76.4v99h76.4l22.6-22.6V101.1z"/>
</svg>
